<?xml version="1.0" encoding="utf-8"?>
<!-- Generator: Adobe Illustrator 16.0.2, SVG Export Plug-In . SVG Version: 6.00 Build 0)  -->
<!DOCTYPE svg PUBLIC "-//W3C//DTD SVG 1.1//EN" "http://www.w3.org/Graphics/SVG/1.1/DTD/svg11.dtd">
<svg version="1.1" id="Layer_1" xmlns="http://www.w3.org/2000/svg" xmlns:xlink="http://www.w3.org/1999/xlink" x="0px" y="0px"
	 width="2448px" height="1584px" viewBox="0 0 2448 1584" enable-background="new 0 0 2448 1584" xml:space="preserve">
<g>
	<path stroke="#000000" stroke-width="0.05" stroke-linecap="round" stroke-linejoin="round" stroke-miterlimit="10" d="
		M620.461,526.5h-204.12V242.64h204.12V526.5 M407.341,535.5h222.12V233.64h-222.12V535.5"/>
	
		<polyline fill="none" stroke="#FF0000" stroke-width="0.05" stroke-linecap="round" stroke-linejoin="round" stroke-miterlimit="10" points="
		641.16,101.16 395.64,101.16 395.64,667.98 641.16,667.98 641.16,101.16 	"/>
	
		<path fill="none" stroke="#FF0000" stroke-width="0.05" stroke-linecap="round" stroke-linejoin="round" stroke-miterlimit="10" d="
		M586.719,328.187c-3.61-4.38-7.633-8.403-12.013-12.015"/>
	
		<line fill="none" stroke="#FF0000" stroke-width="0.05" stroke-linecap="round" stroke-linejoin="round" stroke-miterlimit="10" x1="586.801" y1="328.14" x2="550.44" y2="364.68"/>
	
		<path fill="none" stroke="#FF0000" stroke-width="0.05" stroke-linecap="round" stroke-linejoin="round" stroke-miterlimit="10" d="
		M550.304,364.609c-3.041-4.874-7.154-8.987-12.027-12.029"/>
	
		<line fill="none" stroke="#FF0000" stroke-width="0.05" stroke-linecap="round" stroke-linejoin="round" stroke-miterlimit="10" x1="538.381" y1="352.62" x2="574.74" y2="316.08"/>
	
		<path fill="none" stroke="#FF0000" stroke-width="0.05" stroke-linecap="round" stroke-linejoin="round" stroke-miterlimit="10" d="
		M606.551,393.081c0.545-5.649,0.546-11.339,0.003-16.989"/>
	
		<line fill="none" stroke="#FF0000" stroke-width="0.05" stroke-linecap="round" stroke-linejoin="round" stroke-miterlimit="10" x1="606.6" y1="393.12" x2="555.12" y2="393.12"/>
	
		<path fill="none" stroke="#FF0000" stroke-width="0.05" stroke-linecap="round" stroke-linejoin="round" stroke-miterlimit="10" d="
		M555.048,393.083c1.296-5.598,1.298-11.415,0.003-17.012"/>
	
		<line fill="none" stroke="#FF0000" stroke-width="0.05" stroke-linecap="round" stroke-linejoin="round" stroke-miterlimit="10" x1="555.12" y1="376.02" x2="606.6" y2="376.02"/>
	
		<path fill="none" stroke="#FF0000" stroke-width="0.05" stroke-linecap="round" stroke-linejoin="round" stroke-miterlimit="10" d="
		M574.687,452.984c4.38-3.61,8.404-7.632,12.016-12.011"/>
	
		<line fill="none" stroke="#FF0000" stroke-width="0.05" stroke-linecap="round" stroke-linejoin="round" stroke-miterlimit="10" x1="574.74" y1="453.06" x2="538.381" y2="416.52"/>
	
		<path fill="none" stroke="#FF0000" stroke-width="0.05" stroke-linecap="round" stroke-linejoin="round" stroke-miterlimit="10" d="
		M538.271,416.564c4.874-3.041,8.988-7.154,12.03-12.028"/>
	
		<line fill="none" stroke="#FF0000" stroke-width="0.05" stroke-linecap="round" stroke-linejoin="round" stroke-miterlimit="10" x1="550.44" y1="404.46" x2="586.801" y2="441"/>
	
		<path fill="none" stroke="#FF0000" stroke-width="0.05" stroke-linecap="round" stroke-linejoin="round" stroke-miterlimit="10" d="
		M509.807,472.812c5.649,0.544,11.339,0.545,16.989,0.001"/>
	
		<line fill="none" stroke="#FF0000" stroke-width="0.05" stroke-linecap="round" stroke-linejoin="round" stroke-miterlimit="10" x1="509.94" y1="472.86" x2="509.94" y2="421.199"/>
	
		<path fill="none" stroke="#FF0000" stroke-width="0.05" stroke-linecap="round" stroke-linejoin="round" stroke-miterlimit="10" d="
		M509.802,421.308c5.596,1.296,11.415,1.297,17.011,0.001"/>
	
		<line fill="none" stroke="#FF0000" stroke-width="0.05" stroke-linecap="round" stroke-linejoin="round" stroke-miterlimit="10" x1="526.86" y1="421.199" x2="526.86" y2="472.86"/>
	
		<path fill="none" stroke="#FF0000" stroke-width="0.05" stroke-linecap="round" stroke-linejoin="round" stroke-miterlimit="10" d="
		M449.901,440.952c3.61,4.38,7.633,8.403,12.012,12.016"/>
	
		<line fill="none" stroke="#FF0000" stroke-width="0.05" stroke-linecap="round" stroke-linejoin="round" stroke-miterlimit="10" x1="450" y1="441" x2="486.36" y2="404.46"/>
	
		<path fill="none" stroke="#FF0000" stroke-width="0.05" stroke-linecap="round" stroke-linejoin="round" stroke-miterlimit="10" d="
		M486.316,404.531c3.041,4.874,7.154,8.988,12.027,12.03"/>
	
		<line fill="none" stroke="#FF0000" stroke-width="0.05" stroke-linecap="round" stroke-linejoin="round" stroke-miterlimit="10" x1="498.421" y1="416.52" x2="461.881" y2="453.06"/>
	
		<path fill="none" stroke="#FF0000" stroke-width="0.05" stroke-linecap="round" stroke-linejoin="round" stroke-miterlimit="10" d="
		M430.069,376.067c-0.544,5.65-0.545,11.339-0.002,16.989"/>
	
		<line fill="none" stroke="#FF0000" stroke-width="0.05" stroke-linecap="round" stroke-linejoin="round" stroke-miterlimit="10" x1="430.02" y1="376.02" x2="481.68" y2="376.02"/>
	
		<path fill="none" stroke="#FF0000" stroke-width="0.05" stroke-linecap="round" stroke-linejoin="round" stroke-miterlimit="10" d="
		M481.573,376.061c-1.296,5.597-1.297,11.415-0.002,17.011"/>
	
		<line fill="none" stroke="#FF0000" stroke-width="0.05" stroke-linecap="round" stroke-linejoin="round" stroke-miterlimit="10" x1="481.68" y1="393.12" x2="430.02" y2="393.12"/>
	
		<path fill="none" stroke="#FF0000" stroke-width="0.05" stroke-linecap="round" stroke-linejoin="round" stroke-miterlimit="10" d="
		M461.927,316.162c-4.38,3.609-8.403,7.632-12.015,12.012"/>
	
		<line fill="none" stroke="#FF0000" stroke-width="0.05" stroke-linecap="round" stroke-linejoin="round" stroke-miterlimit="10" x1="461.881" y1="316.08" x2="498.421" y2="352.62"/>
	
		<path fill="none" stroke="#FF0000" stroke-width="0.05" stroke-linecap="round" stroke-linejoin="round" stroke-miterlimit="10" d="
		M498.349,352.576c-4.874,3.041-8.988,7.153-12.029,12.026"/>
	
		<line fill="none" stroke="#FF0000" stroke-width="0.05" stroke-linecap="round" stroke-linejoin="round" stroke-miterlimit="10" x1="486.36" y1="364.68" x2="450" y2="328.14"/>
	
		<path fill="none" stroke="#FF0000" stroke-width="0.05" stroke-linecap="round" stroke-linejoin="round" stroke-miterlimit="10" d="
		M526.819,347.833c-5.596-1.296-11.415-1.296-17.011-0.001"/>
	
		<line fill="none" stroke="#FF0000" stroke-width="0.05" stroke-linecap="round" stroke-linejoin="round" stroke-miterlimit="10" x1="509.94" y1="347.76" x2="509.94" y2="296.28"/>
	
		<path fill="none" stroke="#FF0000" stroke-width="0.05" stroke-linecap="round" stroke-linejoin="round" stroke-miterlimit="10" d="
		M526.813,296.329c-5.65-0.544-11.339-0.545-16.989-0.001"/>
	
		<line fill="none" stroke="#FF0000" stroke-width="0.05" stroke-linecap="round" stroke-linejoin="round" stroke-miterlimit="10" x1="526.86" y1="296.28" x2="526.86" y2="347.76"/>
	
		<line fill="none" stroke="#FF0000" stroke-width="0.05" stroke-linecap="round" stroke-linejoin="round" stroke-miterlimit="10" x1="709.2" y1="244.98" x2="709.2" y2="131.58"/>
	
		<path fill="none" stroke="#FF0000" stroke-width="0.05" stroke-linecap="round" stroke-linejoin="round" stroke-miterlimit="10" d="
		M897.944,245.12c-21.004-31.567-56.406-50.536-94.323-50.539c-37.917-0.004-73.321,18.958-94.333,50.521"/>
	
		<polyline fill="none" stroke="#FF0000" stroke-width="0.05" stroke-linecap="round" stroke-linejoin="round" stroke-miterlimit="10" points="
		709.2,131.58 898.02,131.58 898.02,244.98 	"/>
	
		<polyline fill="none" stroke="#FF0000" stroke-width="0.05" stroke-linecap="round" stroke-linejoin="round" stroke-miterlimit="10" points="
		898.02,528.48 898.02,641.88 709.2,641.88 709.2,528.48 	"/>
	
		<path fill="none" stroke="#FF0000" stroke-width="0.05" stroke-linecap="round" stroke-linejoin="round" stroke-miterlimit="10" d="
		M709.276,528.34c21.005,31.566,56.407,50.536,94.323,50.539c37.917,0.004,73.322-18.958,94.333-50.521"/>
	
		<path fill="none" stroke="#FF0000" stroke-width="0.05" stroke-linecap="round" stroke-linejoin="round" stroke-miterlimit="10" d="
		M876.6,257.131c0-2.535-2.054-4.59-4.589-4.591c-2.535,0-4.59,2.054-4.591,4.589c0,2.535,2.054,4.591,4.589,4.591
		C874.545,261.721,876.6,259.666,876.6,257.131"/>
	
		<path fill="none" stroke="#FF0000" stroke-width="0.05" stroke-linecap="round" stroke-linejoin="round" stroke-miterlimit="10" d="
		M739.801,487.531c0-2.535-2.055-4.59-4.589-4.591c-2.535-0.001-4.591,2.054-4.592,4.589c0,2.535,2.055,4.59,4.589,4.591
		C737.744,492.12,739.8,490.066,739.801,487.531"/>
	
		<path fill="none" stroke="#FF0000" stroke-width="0.05" stroke-linecap="round" stroke-linejoin="round" stroke-miterlimit="10" d="
		M876.6,491.131c0-2.535-2.054-4.59-4.589-4.592c-2.535,0-4.59,2.055-4.591,4.59c0,2.534,2.054,4.591,4.589,4.591
		C874.545,495.721,876.6,493.665,876.6,491.131"/>
	
		<path fill="none" stroke="#FF0000" stroke-width="0.05" stroke-linecap="round" stroke-linejoin="round" stroke-miterlimit="10" d="
		M739.801,275.131c0-2.535-2.055-4.59-4.589-4.591c-2.535-0.001-4.591,2.054-4.592,4.589c0,2.535,2.055,4.591,4.589,4.591
		C737.744,279.721,739.8,277.666,739.801,275.131"/>
	
		<path fill="none" stroke="#FF0000" stroke-width="0.05" stroke-linecap="round" stroke-linejoin="round" stroke-miterlimit="10" d="
		M715.369,378.227c-0.544,5.65-0.545,11.339-0.001,16.989"/>
	
		<line fill="none" stroke="#FF0000" stroke-width="0.05" stroke-linecap="round" stroke-linejoin="round" stroke-miterlimit="10" x1="766.801" y1="395.28" x2="715.32" y2="395.28"/>
	
		<path fill="none" stroke="#FF0000" stroke-width="0.05" stroke-linecap="round" stroke-linejoin="round" stroke-miterlimit="10" d="
		M766.873,378.221c-1.296,5.596-1.297,11.415-0.001,17.011"/>
	
		<line fill="none" stroke="#FF0000" stroke-width="0.05" stroke-linecap="round" stroke-linejoin="round" stroke-miterlimit="10" x1="715.32" y1="378.18" x2="766.801" y2="378.18"/>
	
		<path fill="none" stroke="#FF0000" stroke-width="0.05" stroke-linecap="round" stroke-linejoin="round" stroke-miterlimit="10" d="
		M812.113,298.489c-5.649-0.544-11.339-0.545-16.989-0.002"/>
	
		<line fill="none" stroke="#FF0000" stroke-width="0.05" stroke-linecap="round" stroke-linejoin="round" stroke-miterlimit="10" x1="795.06" y1="349.92" x2="795.06" y2="298.44"/>
	
		<path fill="none" stroke="#FF0000" stroke-width="0.05" stroke-linecap="round" stroke-linejoin="round" stroke-miterlimit="10" d="
		M812.119,349.993c-5.597-1.297-11.415-1.298-17.011-0.001"/>
	
		<line fill="none" stroke="#FF0000" stroke-width="0.05" stroke-linecap="round" stroke-linejoin="round" stroke-miterlimit="10" x1="812.16" y1="298.44" x2="812.16" y2="349.92"/>
	
		<path fill="none" stroke="#FF0000" stroke-width="0.05" stroke-linecap="round" stroke-linejoin="round" stroke-miterlimit="10" d="
		M891.851,395.241c0.545-5.65,0.546-11.34,0.003-16.989"/>
	
		<line fill="none" stroke="#FF0000" stroke-width="0.05" stroke-linecap="round" stroke-linejoin="round" stroke-miterlimit="10" x1="840.421" y1="378.18" x2="891.9" y2="378.18"/>
	
		<path fill="none" stroke="#FF0000" stroke-width="0.05" stroke-linecap="round" stroke-linejoin="round" stroke-miterlimit="10" d="
		M840.347,395.243c1.297-5.597,1.298-11.415,0.003-17.012"/>
	
		<line fill="none" stroke="#FF0000" stroke-width="0.05" stroke-linecap="round" stroke-linejoin="round" stroke-miterlimit="10" x1="891.9" y1="395.28" x2="840.421" y2="395.28"/>
	
		<path fill="none" stroke="#FF0000" stroke-width="0.05" stroke-linecap="round" stroke-linejoin="round" stroke-miterlimit="10" d="
		M795.101,423.467c5.596,1.296,11.415,1.297,17.011,0.001"/>
	
		<line fill="none" stroke="#FF0000" stroke-width="0.05" stroke-linecap="round" stroke-linejoin="round" stroke-miterlimit="10" x1="795.06" y1="475.02" x2="795.06" y2="423.539"/>
	
		<path fill="none" stroke="#FF0000" stroke-width="0.05" stroke-linecap="round" stroke-linejoin="round" stroke-miterlimit="10" d="
		M795.106,474.971c5.65,0.544,11.339,0.545,16.99,0.002"/>
	
		<line fill="none" stroke="#FF0000" stroke-width="0.05" stroke-linecap="round" stroke-linejoin="round" stroke-miterlimit="10" x1="812.16" y1="423.539" x2="812.16" y2="475.02"/>
	
		<path fill="none" stroke="#FF0000" stroke-width="0.05" stroke-linecap="round" stroke-linejoin="round" stroke-miterlimit="10" d="
		M859.987,455.144c4.38-3.609,8.404-7.632,12.017-12.011"/>
	
		<line fill="none" stroke="#FF0000" stroke-width="0.05" stroke-linecap="round" stroke-linejoin="round" stroke-miterlimit="10" x1="835.56" y1="406.619" x2="872.1" y2="443.159"/>
	
		<path fill="none" stroke="#FF0000" stroke-width="0.05" stroke-linecap="round" stroke-linejoin="round" stroke-miterlimit="10" d="
		M823.571,418.724c4.874-3.041,8.988-7.154,12.03-12.027"/>
	
		<line fill="none" stroke="#FF0000" stroke-width="0.05" stroke-linecap="round" stroke-linejoin="round" stroke-miterlimit="10" x1="860.04" y1="455.22" x2="823.5" y2="418.68"/>
	
		<path fill="none" stroke="#FF0000" stroke-width="0.05" stroke-linecap="round" stroke-linejoin="round" stroke-miterlimit="10" d="
		M872.019,330.347c-3.61-4.38-7.633-8.403-12.012-12.014"/>
	
		<line fill="none" stroke="#FF0000" stroke-width="0.05" stroke-linecap="round" stroke-linejoin="round" stroke-miterlimit="10" x1="823.5" y1="354.78" x2="860.04" y2="318.24"/>
	
		<path fill="none" stroke="#FF0000" stroke-width="0.05" stroke-linecap="round" stroke-linejoin="round" stroke-miterlimit="10" d="
		M835.604,366.77c-3.041-4.874-7.155-8.988-12.028-12.03"/>
	
		<line fill="none" stroke="#FF0000" stroke-width="0.05" stroke-linecap="round" stroke-linejoin="round" stroke-miterlimit="10" x1="872.1" y1="330.3" x2="835.56" y2="366.84"/>
	
		<path fill="none" stroke="#FF0000" stroke-width="0.05" stroke-linecap="round" stroke-linejoin="round" stroke-miterlimit="10" d="
		M747.227,318.321c-4.38,3.61-8.403,7.634-12.014,12.013"/>
	
		<line fill="none" stroke="#FF0000" stroke-width="0.05" stroke-linecap="round" stroke-linejoin="round" stroke-miterlimit="10" x1="771.66" y1="366.84" x2="735.12" y2="330.3"/>
	
		<path fill="none" stroke="#FF0000" stroke-width="0.05" stroke-linecap="round" stroke-linejoin="round" stroke-miterlimit="10" d="
		M783.649,354.736c-4.874,3.04-8.988,7.154-12.03,12.027"/>
	
		<line fill="none" stroke="#FF0000" stroke-width="0.05" stroke-linecap="round" stroke-linejoin="round" stroke-miterlimit="10" x1="747.18" y1="318.24" x2="783.72" y2="354.78"/>
	
		<path fill="none" stroke="#FF0000" stroke-width="0.05" stroke-linecap="round" stroke-linejoin="round" stroke-miterlimit="10" d="
		M735.201,443.113c3.61,4.38,7.633,8.403,12.013,12.015"/>
	
		<line fill="none" stroke="#FF0000" stroke-width="0.05" stroke-linecap="round" stroke-linejoin="round" stroke-miterlimit="10" x1="783.72" y1="418.68" x2="747.18" y2="455.22"/>
	
		<path fill="none" stroke="#FF0000" stroke-width="0.05" stroke-linecap="round" stroke-linejoin="round" stroke-miterlimit="10" d="
		M771.616,406.69c3.041,4.874,7.154,8.988,12.027,12.03"/>
	
		<line fill="none" stroke="#FF0000" stroke-width="0.05" stroke-linecap="round" stroke-linejoin="round" stroke-miterlimit="10" x1="735.12" y1="443.159" x2="771.66" y2="406.619"/>
	
		<polyline fill="none" stroke="#FF0000" stroke-width="0.05" stroke-linecap="round" stroke-linejoin="round" stroke-miterlimit="10" points="
		926.28,670.14 926.28,103.32 680.94,103.32 680.94,670.14 926.28,670.14 	"/>
</g>
<g id="svgGroup">
	
		<path id="front_outsideCutPath" vector-effect="non-scaling-stroke" fill="none" stroke="#FF0000" stroke-width="0.05" stroke-linecap="round" d="
		M1260.39,532.732v15.144h8.504v20.74h-8.504v15.141h36.304v-8.504h20.741v8.504h20.741v-8.504h20.74v8.504h20.74v-8.504h20.741
		v8.504h20.741v-8.504h20.74v8.504h20.741v-8.504h20.741v8.504h20.741v-8.504h20.74v8.504h20.741h15.56v-15.141h-8.505v-20.74h8.505
		v-15.144H1260.39z"/>
	
		<path id="left_outsideCutPath" vector-effect="non-scaling-stroke" fill="none" stroke="#FF0000" stroke-width="0.05" stroke-linecap="round" d="
		M1578.153,532.732v15.144h-8.504v20.74h8.504v15.141h8.711v-8.504h20.744v8.504h20.74v-8.504h20.738v8.504h20.743v-8.504h20.742
		v8.504h20.738v-8.504h20.74v8.504h20.744v-8.504h20.739v8.504h8.712v-15.141h8.504v-20.74h-8.504v-15.144H1578.153z"/>
	
		<path id="back_outsideCutPath" vector-effect="non-scaling-stroke" fill="none" stroke="#FF0000" stroke-width="0.05" stroke-linecap="round" d="
		M1260.39,473.204v15.141h8.504v20.744h-8.504v15.14h36.304v-8.504h20.741v8.504h20.741v-8.504h20.74v8.504h20.74v-8.504h20.741
		v8.504h20.741v-8.504h20.74v8.504h20.741v-8.504h20.741v8.504h20.741v-8.504h20.74v8.504h20.741h15.56v-15.14h-8.505v-20.744h8.505
		v-15.141H1260.39z"/>
	
		<path id="right_outsideCutPath" vector-effect="non-scaling-stroke" fill="none" stroke="#FF0000" stroke-width="0.05" stroke-linecap="round" d="
		M1578.153,473.204v15.141h-8.504v20.744h8.504v15.14h8.711v-8.504h20.744v8.504h20.74v-8.504h20.738v8.504h20.743v-8.504h20.742
		v8.504h20.738v-8.504h20.74v8.504h20.744v-8.504h20.739v8.504h8.712v-15.14h8.504v-20.744h-8.504v-15.141H1578.153z"/>
</g>
<g>
	
		<path fill="none" stroke="#FF0000" stroke-width="0.05" stroke-linecap="round" stroke-linejoin="round" stroke-miterlimit="10" d="
		M1038.677,510.267c-4.381,3.61-8.404,7.633-12.016,12.012"/>
	
		<line fill="none" stroke="#FF0000" stroke-width="0.05" stroke-linecap="round" stroke-linejoin="round" stroke-miterlimit="10" x1="1038.63" y1="510.186" x2="1075.17" y2="546.546"/>
	
		<path fill="none" stroke="#FF0000" stroke-width="0.05" stroke-linecap="round" stroke-linejoin="round" stroke-miterlimit="10" d="
		M1075.098,546.682c-4.873,3.04-8.988,7.154-12.029,12.027"/>
	
		<line fill="none" stroke="#FF0000" stroke-width="0.05" stroke-linecap="round" stroke-linejoin="round" stroke-miterlimit="10" x1="1063.109" y1="558.605" x2="1026.569" y2="522.244"/>
	
		<path fill="none" stroke="#FF0000" stroke-width="0.05" stroke-linecap="round" stroke-linejoin="round" stroke-miterlimit="10" d="
		M1103.57,490.435c-5.648-0.545-11.339-0.546-16.989-0.003"/>
	
		<line fill="none" stroke="#FF0000" stroke-width="0.05" stroke-linecap="round" stroke-linejoin="round" stroke-miterlimit="10" x1="1103.609" y1="490.386" x2="1103.609" y2="541.865"/>
	
		<path fill="none" stroke="#FF0000" stroke-width="0.05" stroke-linecap="round" stroke-linejoin="round" stroke-miterlimit="10" d="
		M1103.572,541.938c-5.597-1.297-11.415-1.298-17.011-0.003"/>
	
		<line fill="none" stroke="#FF0000" stroke-width="0.05" stroke-linecap="round" stroke-linejoin="round" stroke-miterlimit="10" x1="1086.51" y1="541.865" x2="1086.51" y2="490.386"/>
	
		<path fill="none" stroke="#FF0000" stroke-width="0.05" stroke-linecap="round" stroke-linejoin="round" stroke-miterlimit="10" d="
		M1163.473,522.298c-3.61-4.38-7.632-8.403-12.012-12.017"/>
	
		<line fill="none" stroke="#FF0000" stroke-width="0.05" stroke-linecap="round" stroke-linejoin="round" stroke-miterlimit="10" x1="1163.55" y1="522.244" x2="1127.01" y2="558.605"/>
	
		<path fill="none" stroke="#FF0000" stroke-width="0.05" stroke-linecap="round" stroke-linejoin="round" stroke-miterlimit="10" d="
		M1127.053,558.715c-3.04-4.874-7.154-8.988-12.027-12.03"/>
	
		<line fill="none" stroke="#FF0000" stroke-width="0.05" stroke-linecap="round" stroke-linejoin="round" stroke-miterlimit="10" x1="1114.949" y1="546.546" x2="1151.489" y2="510.186"/>
	
		<path fill="none" stroke="#FF0000" stroke-width="0.05" stroke-linecap="round" stroke-linejoin="round" stroke-miterlimit="10" d="
		M1183.301,587.179c0.545-5.65,0.545-11.34,0.002-16.989"/>
	
		<line fill="none" stroke="#FF0000" stroke-width="0.05" stroke-linecap="round" stroke-linejoin="round" stroke-miterlimit="10" x1="1183.349" y1="587.046" x2="1131.689" y2="587.046"/>
	
		<path fill="none" stroke="#FF0000" stroke-width="0.05" stroke-linecap="round" stroke-linejoin="round" stroke-miterlimit="10" d="
		M1131.797,587.185c1.296-5.597,1.297-11.415,0.002-17.012"/>
	
		<line fill="none" stroke="#FF0000" stroke-width="0.05" stroke-linecap="round" stroke-linejoin="round" stroke-miterlimit="10" x1="1131.689" y1="570.125" x2="1183.349" y2="570.125"/>
	
		<path fill="none" stroke="#FF0000" stroke-width="0.05" stroke-linecap="round" stroke-linejoin="round" stroke-miterlimit="10" d="
		M1151.442,647.084c4.381-3.61,8.403-7.634,12.015-12.014"/>
	
		<line fill="none" stroke="#FF0000" stroke-width="0.05" stroke-linecap="round" stroke-linejoin="round" stroke-miterlimit="10" x1="1151.489" y1="646.985" x2="1114.949" y2="610.625"/>
	
		<path fill="none" stroke="#FF0000" stroke-width="0.05" stroke-linecap="round" stroke-linejoin="round" stroke-miterlimit="10" d="
		M1115.02,610.669c4.873-3.04,8.988-7.154,12.029-12.027"/>
	
		<line fill="none" stroke="#FF0000" stroke-width="0.05" stroke-linecap="round" stroke-linejoin="round" stroke-miterlimit="10" x1="1127.01" y1="598.565" x2="1163.55" y2="635.105"/>
	
		<path fill="none" stroke="#FF0000" stroke-width="0.05" stroke-linecap="round" stroke-linejoin="round" stroke-miterlimit="10" d="
		M1086.556,666.916c5.648,0.545,11.339,0.546,16.989,0.003"/>
	
		<line fill="none" stroke="#FF0000" stroke-width="0.05" stroke-linecap="round" stroke-linejoin="round" stroke-miterlimit="10" x1="1086.51" y1="666.966" x2="1086.51" y2="615.306"/>
	
		<path fill="none" stroke="#FF0000" stroke-width="0.05" stroke-linecap="round" stroke-linejoin="round" stroke-miterlimit="10" d="
		M1086.551,615.412c5.596,1.297,11.414,1.298,17.011,0.002"/>
	
		<line fill="none" stroke="#FF0000" stroke-width="0.05" stroke-linecap="round" stroke-linejoin="round" stroke-miterlimit="10" x1="1103.609" y1="615.306" x2="1103.609" y2="666.966"/>
	
		<path fill="none" stroke="#FF0000" stroke-width="0.05" stroke-linecap="round" stroke-linejoin="round" stroke-miterlimit="10" d="
		M1026.651,635.059c3.609,4.38,7.632,8.403,12.012,12.015"/>
	
		<line fill="none" stroke="#FF0000" stroke-width="0.05" stroke-linecap="round" stroke-linejoin="round" stroke-miterlimit="10" x1="1026.569" y1="635.105" x2="1063.109" y2="598.565"/>
	
		<path fill="none" stroke="#FF0000" stroke-width="0.05" stroke-linecap="round" stroke-linejoin="round" stroke-miterlimit="10" d="
		M1063.065,598.636c3.041,4.874,7.154,8.987,12.027,12.028"/>
	
		<line fill="none" stroke="#FF0000" stroke-width="0.05" stroke-linecap="round" stroke-linejoin="round" stroke-miterlimit="10" x1="1075.17" y1="610.625" x2="1038.63" y2="646.985"/>
	
		<path fill="none" stroke="#FF0000" stroke-width="0.05" stroke-linecap="round" stroke-linejoin="round" stroke-miterlimit="10" d="
		M1058.322,570.166c-1.296,5.597-1.297,11.414-0.002,17.012"/>
	
		<line fill="none" stroke="#FF0000" stroke-width="0.05" stroke-linecap="round" stroke-linejoin="round" stroke-miterlimit="10" x1="1058.25" y1="587.046" x2="1006.769" y2="587.046"/>
	
		<path fill="none" stroke="#FF0000" stroke-width="0.05" stroke-linecap="round" stroke-linejoin="round" stroke-miterlimit="10" d="
		M1006.818,570.172c-0.545,5.649-0.545,11.339-0.002,16.988"/>
	
		<line fill="none" stroke="#FF0000" stroke-width="0.05" stroke-linecap="round" stroke-linejoin="round" stroke-miterlimit="10" x1="1006.769" y1="570.125" x2="1058.25" y2="570.125"/>
	
		<path id="bottom_outsideCutPath_1_" vector-effect="non-scaling-stroke" fill="none" stroke="#FF0000" stroke-width="0.05" stroke-linecap="round" d="
		M1236.615,681.123v-8.711h8.504v-20.743h-8.504v-20.738h8.504v-20.74h-8.504v-20.742h8.504v-20.744h-8.504v-20.739h8.504v-20.74
		h-8.504v-20.742h8.504V485.74h-8.504v-8.711h-27.799v-8.504h-20.738v8.504h-20.74v-8.504h-20.744v8.504h-20.738v-8.504h-20.741
		v8.504h-20.739v-8.504h-20.744v8.504h-20.741v-8.504h-20.741v8.504h-20.741v-8.504H980.67v8.504h-20.741h-7.059v8.711h-8.505
		v20.741h8.505v20.742h-8.505v20.74h8.505v20.739h-8.505v20.742h8.505v20.74h-8.505v20.742h8.505v20.739h-8.505v20.744h8.505v8.711
		h27.8v8.504h20.74v-8.504h20.738v8.504h20.741v-8.504h20.741v8.504h20.744v-8.504h20.739v8.504h20.741v-8.504h20.741v8.504h20.741
		v-8.504h20.74v8.504h20.741v-8.504h20.738h7.058V681.123z"/>
</g>
<rect x="1623.508" y="480.826" fill="none" stroke="#FF0000" stroke-width="0.05" stroke-linecap="round" width="113.387" height="28.348"/>
<rect x="1497.25" y="480.826" fill="none" stroke="#FF0000" stroke-width="0.05" stroke-linecap="round" width="50.75" height="28.348"/>
<g>
	
		<line fill="none" stroke="#FF0000" stroke-width="0.12" stroke-linecap="round" stroke-linejoin="round" stroke-miterlimit="10" x1="1019.124" y1="127.503" x2="1019.124" y2="120.423"/>
	
		<polyline fill="none" stroke="#FF0000" stroke-width="0.12" stroke-linecap="round" stroke-linejoin="round" stroke-miterlimit="10" points="
		1019.124,120.423 1024.284,112.982 1034.365,112.982 1039.524,120.423 1039.524,127.503 	"/>
	
		<line fill="none" stroke="#FF0000" stroke-width="0.12" stroke-linecap="round" stroke-linejoin="round" stroke-miterlimit="10" x1="1698.564" y1="127.503" x2="1698.564" y2="120.423"/>
	
		<polyline fill="none" stroke="#FF0000" stroke-width="0.12" stroke-linecap="round" stroke-linejoin="round" stroke-miterlimit="10" points="
		1698.564,120.423 1703.724,112.982 1713.804,112.982 1718.965,120.423 1718.965,127.503 	"/>
	
		<line fill="none" stroke="#FF0000" stroke-width="0.12" stroke-linecap="round" stroke-linejoin="round" stroke-miterlimit="10" x1="1039.524" y1="127.503" x2="1058.604" y2="127.503"/>
	
		<line fill="none" stroke="#FF0000" stroke-width="0.12" stroke-linecap="round" stroke-linejoin="round" stroke-miterlimit="10" x1="1794.684" y1="254.463" x2="1794.684" y2="118.383"/>
	
		<line fill="none" stroke="#FF0000" stroke-width="0.12" stroke-linecap="round" stroke-linejoin="round" stroke-miterlimit="10" x1="1777.644" y1="101.343" x2="961.284" y2="101.343"/>
	
		<line fill="none" stroke="#FF0000" stroke-width="0.12" stroke-linecap="round" stroke-linejoin="round" stroke-miterlimit="10" x1="944.365" y1="118.383" x2="944.365" y2="254.463"/>
	
		<line fill="none" stroke="#FF0000" stroke-width="0.12" stroke-linecap="round" stroke-linejoin="round" stroke-miterlimit="10" x1="961.284" y1="271.503" x2="1777.644" y2="271.503"/>
	
		<polyline fill="none" stroke="#FF0000" stroke-width="0.12" stroke-linecap="round" stroke-linejoin="round" stroke-miterlimit="10" points="
		1718.965,127.503 1738.045,127.503 1738.045,243.062 1680.444,243.062 1680.444,127.503 1698.564,127.503 	"/>
	
		<polyline fill="none" stroke="#FF0000" stroke-width="0.12" stroke-linecap="round" stroke-linejoin="round" stroke-miterlimit="10" points="
		1058.604,127.503 1058.604,243.062 1001.004,243.062 1001.004,127.503 1019.124,127.503 	"/>
	
		<polyline fill="none" stroke="#FF0000" stroke-width="0.12" stroke-linecap="round" stroke-linejoin="round" stroke-miterlimit="10" points="
		1087.477,138.235 1087.477,129.731 1651.572,129.731 1651.572,138.235 1087.477,138.235 	"/>
	
		<polyline fill="none" stroke="#FF0000" stroke-width="0.12" stroke-linecap="round" stroke-linejoin="round" stroke-miterlimit="10" points="
		1651.572,234.611 1651.572,243.115 1087.477,243.115 1087.477,234.611 1651.572,234.611 	"/>
	
		<path fill="none" stroke="#FF0000" stroke-width="0.12" stroke-linecap="round" stroke-linejoin="round" stroke-miterlimit="10" d="
		M1696.045,256.563c0-0.763-0.618-1.38-1.38-1.38c-0.763-0.001-1.381,0.617-1.381,1.379s0.618,1.381,1.38,1.381
		C1695.427,257.943,1696.044,257.325,1696.045,256.563"/>
	
		<path fill="none" stroke="#FF0000" stroke-width="0.12" stroke-linecap="round" stroke-linejoin="round" stroke-miterlimit="10" d="
		M1696.045,116.283c0-0.762-0.618-1.38-1.38-1.38c-0.763-0.001-1.381,0.617-1.381,1.38c0,0.762,0.618,1.38,1.38,1.38
		C1695.427,117.663,1696.044,117.045,1696.045,116.283"/>
	
		<path fill="none" stroke="#FF0000" stroke-width="0.12" stroke-linecap="round" stroke-linejoin="round" stroke-miterlimit="10" d="
		M1016.604,256.563c0-0.763-0.618-1.38-1.38-1.38c-0.762-0.001-1.38,0.617-1.38,1.379c0,0.762,0.617,1.381,1.379,1.381
		S1016.604,257.325,1016.604,256.563"/>
	
		<path fill="none" stroke="#FF0000" stroke-width="0.12" stroke-linecap="round" stroke-linejoin="round" stroke-miterlimit="10" d="
		M1016.604,116.283c0-0.762-0.618-1.38-1.38-1.38c-0.762-0.001-1.38,0.617-1.38,1.38c0,0.762,0.617,1.38,1.379,1.38
		S1016.604,117.045,1016.604,116.283"/>
	
		<path fill="none" stroke="#FF0000" stroke-width="0.12" stroke-linecap="round" stroke-linejoin="round" stroke-miterlimit="10" d="
		M1044.925,116.283c0-0.762-0.618-1.38-1.38-1.38c-0.762-0.001-1.38,0.617-1.38,1.38c0,0.762,0.618,1.38,1.38,1.38
		S1044.924,117.045,1044.925,116.283"/>
	
		<path fill="none" stroke="#FF0000" stroke-width="0.12" stroke-linecap="round" stroke-linejoin="round" stroke-miterlimit="10" d="
		M1044.925,256.563c0-0.763-0.618-1.38-1.38-1.38c-0.762-0.001-1.38,0.617-1.38,1.379s0.618,1.381,1.38,1.381
		S1044.924,257.325,1044.925,256.563"/>
	
		<path fill="none" stroke="#FF0000" stroke-width="0.12" stroke-linecap="round" stroke-linejoin="round" stroke-miterlimit="10" d="
		M1724.364,116.283c0-0.762-0.617-1.38-1.379-1.38c-0.763-0.001-1.381,0.617-1.381,1.38c0,0.762,0.617,1.38,1.38,1.38
		C1723.746,117.663,1724.364,117.045,1724.364,116.283"/>
	
		<path fill="none" stroke="#FF0000" stroke-width="0.12" stroke-linecap="round" stroke-linejoin="round" stroke-miterlimit="10" d="
		M1724.364,256.563c0-0.763-0.617-1.38-1.379-1.38c-0.763-0.001-1.381,0.617-1.381,1.379s0.617,1.381,1.38,1.381
		C1723.746,257.943,1724.364,257.325,1724.364,256.563"/>
	
		<polyline fill="none" stroke="#FF0000" stroke-width="0.12" stroke-linecap="round" stroke-linejoin="round" stroke-miterlimit="10" points="
		1573.644,220.383 1545.204,220.383 1613.245,152.463 1641.684,152.463 1573.644,220.383 	"/>
	
		<polyline fill="none" stroke="#FF0000" stroke-width="0.12" stroke-linecap="round" stroke-linejoin="round" stroke-miterlimit="10" points="
		1497.085,220.383 1468.764,220.383 1536.804,152.463 1565.124,152.463 1497.085,220.383 	"/>
	
		<polyline fill="none" stroke="#FF0000" stroke-width="0.12" stroke-linecap="round" stroke-linejoin="round" stroke-miterlimit="10" points="
		1420.524,220.383 1392.204,220.383 1460.245,152.463 1488.564,152.463 1420.524,220.383 	"/>
	
		<polyline fill="none" stroke="#FF0000" stroke-width="0.12" stroke-linecap="round" stroke-linejoin="round" stroke-miterlimit="10" points="
		1343.965,220.383 1315.644,220.383 1383.684,152.463 1412.005,152.463 1343.965,220.383 	"/>
	
		<polyline fill="none" stroke="#FF0000" stroke-width="0.12" stroke-linecap="round" stroke-linejoin="round" stroke-miterlimit="10" points="
		1267.524,220.383 1239.085,220.383 1307.124,152.463 1335.444,152.463 1267.524,220.383 	"/>
	
		<polyline fill="none" stroke="#FF0000" stroke-width="0.12" stroke-linecap="round" stroke-linejoin="round" stroke-miterlimit="10" points="
		1190.965,220.383 1162.524,220.383 1230.564,152.463 1259.005,152.463 1190.965,220.383 	"/>
	
		<polyline fill="none" stroke="#FF0000" stroke-width="0.12" stroke-linecap="round" stroke-linejoin="round" stroke-miterlimit="10" points="
		1114.404,220.383 1086.084,220.383 1154.124,152.463 1182.444,152.463 1114.404,220.383 	"/>
	
		<path fill="none" stroke="#FF0000" stroke-width="0.12" stroke-linecap="round" stroke-linejoin="round" stroke-miterlimit="10" d="
		M1777.703,271.383c9.377,0.001,16.979-7.6,16.981-16.977"/>
	
		<path fill="none" stroke="#FF0000" stroke-width="0.12" stroke-linecap="round" stroke-linejoin="round" stroke-miterlimit="10" d="
		M1794.684,118.443c0-9.377-7.602-16.979-16.979-16.98"/>
	
		<path fill="none" stroke="#FF0000" stroke-width="0.12" stroke-linecap="round" stroke-linejoin="round" stroke-miterlimit="10" d="
		M961.346,101.463c-9.377-0.001-16.98,7.6-16.981,16.977"/>
	
		<path fill="none" stroke="#FF0000" stroke-width="0.12" stroke-linecap="round" stroke-linejoin="round" stroke-miterlimit="10" d="
		M944.365,254.401c-0.001,9.377,7.599,16.979,16.977,16.981"/>
	
		<line fill="none" stroke="#FF0000" stroke-width="0.12" stroke-linecap="round" stroke-linejoin="round" stroke-miterlimit="10" x1="1719.925" y1="304.918" x2="1719.925" y2="297.838"/>
	
		<polyline fill="none" stroke="#FF0000" stroke-width="0.12" stroke-linecap="round" stroke-linejoin="round" stroke-miterlimit="10" points="
		1719.925,297.838 1714.764,290.397 1704.684,290.397 1699.525,297.838 1699.525,304.918 	"/>
	
		<line fill="none" stroke="#FF0000" stroke-width="0.12" stroke-linecap="round" stroke-linejoin="round" stroke-miterlimit="10" x1="1040.485" y1="304.918" x2="1040.485" y2="297.838"/>
	
		<polyline fill="none" stroke="#FF0000" stroke-width="0.12" stroke-linecap="round" stroke-linejoin="round" stroke-miterlimit="10" points="
		1040.485,297.838 1035.324,290.397 1025.244,290.397 1020.084,297.838 1020.084,304.918 	"/>
	
		<line fill="none" stroke="#FF0000" stroke-width="0.12" stroke-linecap="round" stroke-linejoin="round" stroke-miterlimit="10" x1="1699.525" y1="304.918" x2="1680.445" y2="304.918"/>
	
		<line fill="none" stroke="#FF0000" stroke-width="0.12" stroke-linecap="round" stroke-linejoin="round" stroke-miterlimit="10" x1="944.365" y1="431.878" x2="944.365" y2="295.798"/>
	
		<line fill="none" stroke="#FF0000" stroke-width="0.12" stroke-linecap="round" stroke-linejoin="round" stroke-miterlimit="10" x1="961.405" y1="278.758" x2="1777.764" y2="278.758"/>
	
		<line fill="none" stroke="#FF0000" stroke-width="0.12" stroke-linecap="round" stroke-linejoin="round" stroke-miterlimit="10" x1="1794.684" y1="295.798" x2="1794.684" y2="431.878"/>
	
		<line fill="none" stroke="#FF0000" stroke-width="0.12" stroke-linecap="round" stroke-linejoin="round" stroke-miterlimit="10" x1="1777.764" y1="448.918" x2="961.405" y2="448.918"/>
	
		<polyline fill="none" stroke="#FF0000" stroke-width="0.12" stroke-linecap="round" stroke-linejoin="round" stroke-miterlimit="10" points="
		1020.084,304.918 1001.004,304.918 1001.004,420.477 1058.605,420.477 1058.605,304.918 1040.485,304.918 	"/>
	
		<polyline fill="none" stroke="#FF0000" stroke-width="0.12" stroke-linecap="round" stroke-linejoin="round" stroke-miterlimit="10" points="
		1680.445,304.918 1680.445,420.477 1738.045,420.477 1738.045,304.918 1719.925,304.918 	"/>
	
		<polyline fill="none" stroke="#FF0000" stroke-width="0.12" stroke-linecap="round" stroke-linejoin="round" stroke-miterlimit="10" points="
		1651.572,315.65 1651.572,307.146 1087.477,307.146 1087.477,315.65 1651.572,315.65 	"/>
	
		<polyline fill="none" stroke="#FF0000" stroke-width="0.12" stroke-linecap="round" stroke-linejoin="round" stroke-miterlimit="10" points="
		1087.477,412.026 1087.477,420.53 1651.572,420.53 1651.572,412.026 1087.477,412.026 	"/>
	
		<path fill="none" stroke="#FF0000" stroke-width="0.12" stroke-linecap="round" stroke-linejoin="round" stroke-miterlimit="10" d="
		M1043.004,433.978c0-0.763,0.618-1.38,1.38-1.38c0.763-0.001,1.381,0.617,1.381,1.379s-0.618,1.381-1.38,1.381
		C1043.622,435.358,1043.005,434.74,1043.004,433.978"/>
	
		<path fill="none" stroke="#FF0000" stroke-width="0.12" stroke-linecap="round" stroke-linejoin="round" stroke-miterlimit="10" d="
		M1043.004,293.698c0-0.762,0.618-1.38,1.38-1.38c0.763-0.001,1.381,0.617,1.381,1.38c0,0.762-0.618,1.38-1.38,1.38
		C1043.622,295.078,1043.005,294.46,1043.004,293.698"/>
	
		<path fill="none" stroke="#FF0000" stroke-width="0.12" stroke-linecap="round" stroke-linejoin="round" stroke-miterlimit="10" d="
		M1722.445,433.978c0-0.763,0.617-1.38,1.379-1.38c0.762-0.001,1.381,0.617,1.381,1.379s-0.617,1.381-1.38,1.381
		S1722.445,434.74,1722.445,433.978"/>
	
		<path fill="none" stroke="#FF0000" stroke-width="0.12" stroke-linecap="round" stroke-linejoin="round" stroke-miterlimit="10" d="
		M1722.445,293.698c0-0.762,0.617-1.38,1.379-1.38c0.762-0.001,1.381,0.617,1.381,1.38c0,0.762-0.617,1.38-1.38,1.38
		S1722.445,294.46,1722.445,293.698"/>
	
		<path fill="none" stroke="#FF0000" stroke-width="0.12" stroke-linecap="round" stroke-linejoin="round" stroke-miterlimit="10" d="
		M1694.125,293.698c0-0.762,0.617-1.38,1.379-1.38c0.763-0.001,1.381,0.617,1.381,1.38c0,0.762-0.617,1.38-1.38,1.38
		S1694.125,294.46,1694.125,293.698"/>
	
		<path fill="none" stroke="#FF0000" stroke-width="0.12" stroke-linecap="round" stroke-linejoin="round" stroke-miterlimit="10" d="
		M1694.125,433.978c0-0.763,0.617-1.38,1.379-1.38c0.763-0.001,1.381,0.617,1.381,1.379s-0.617,1.381-1.38,1.381
		S1694.125,434.74,1694.125,433.978"/>
	
		<path fill="none" stroke="#FF0000" stroke-width="0.12" stroke-linecap="round" stroke-linejoin="round" stroke-miterlimit="10" d="
		M1014.685,293.698c0-0.762,0.617-1.38,1.379-1.38c0.763-0.001,1.381,0.617,1.381,1.38c0,0.762-0.617,1.38-1.38,1.38
		C1015.303,295.078,1014.685,294.46,1014.685,293.698"/>
	
		<path fill="none" stroke="#FF0000" stroke-width="0.12" stroke-linecap="round" stroke-linejoin="round" stroke-miterlimit="10" d="
		M1014.685,433.978c0-0.763,0.617-1.38,1.379-1.38c0.763-0.001,1.381,0.617,1.381,1.379s-0.617,1.381-1.38,1.381
		C1015.303,435.358,1014.685,434.74,1014.685,433.978"/>
	
		<polyline fill="none" stroke="#FF0000" stroke-width="0.12" stroke-linecap="round" stroke-linejoin="round" stroke-miterlimit="10" points="
		1165.405,397.798 1193.845,397.798 1125.804,329.878 1097.365,329.878 1165.405,397.798 	"/>
	
		<polyline fill="none" stroke="#FF0000" stroke-width="0.12" stroke-linecap="round" stroke-linejoin="round" stroke-miterlimit="10" points="
		1241.965,397.798 1270.285,397.798 1202.244,329.878 1173.925,329.878 1241.965,397.798 	"/>
	
		<polyline fill="none" stroke="#FF0000" stroke-width="0.12" stroke-linecap="round" stroke-linejoin="round" stroke-miterlimit="10" points="
		1318.525,397.798 1346.845,397.798 1278.804,329.878 1250.484,329.878 1318.525,397.798 	"/>
	
		<polyline fill="none" stroke="#FF0000" stroke-width="0.12" stroke-linecap="round" stroke-linejoin="round" stroke-miterlimit="10" points="
		1395.084,397.798 1423.404,397.798 1355.365,329.878 1327.045,329.878 1395.084,397.798 	"/>
	
		<polyline fill="none" stroke="#FF0000" stroke-width="0.12" stroke-linecap="round" stroke-linejoin="round" stroke-miterlimit="10" points="
		1471.525,397.798 1499.965,397.798 1431.926,329.878 1403.605,329.878 1471.525,397.798 	"/>
	
		<polyline fill="none" stroke="#FF0000" stroke-width="0.12" stroke-linecap="round" stroke-linejoin="round" stroke-miterlimit="10" points="
		1548.084,397.798 1576.525,397.798 1508.484,329.878 1480.045,329.878 1548.084,397.798 	"/>
	
		<polyline fill="none" stroke="#FF0000" stroke-width="0.12" stroke-linecap="round" stroke-linejoin="round" stroke-miterlimit="10" points="
		1624.644,397.798 1652.965,397.798 1584.925,329.878 1556.605,329.878 1624.644,397.798 	"/>
	
		<path fill="none" stroke="#FF0000" stroke-width="0.12" stroke-linecap="round" stroke-linejoin="round" stroke-miterlimit="10" d="
		M961.346,448.798c-9.377,0.001-16.979-7.6-16.981-16.977"/>
	
		<path fill="none" stroke="#FF0000" stroke-width="0.12" stroke-linecap="round" stroke-linejoin="round" stroke-miterlimit="10" d="
		M944.365,295.858c0-9.377,7.602-16.979,16.979-16.98"/>
	
		<path fill="none" stroke="#FF0000" stroke-width="0.12" stroke-linecap="round" stroke-linejoin="round" stroke-miterlimit="10" d="
		M1777.703,278.878c9.377-0.001,16.98,7.6,16.981,16.977"/>
	
		<path fill="none" stroke="#FF0000" stroke-width="0.12" stroke-linecap="round" stroke-linejoin="round" stroke-miterlimit="10" d="
		M1794.684,431.816c0.001,9.377-7.599,16.979-16.977,16.981"/>
</g>
</svg>
